<svg width="70" height="73" viewBox="0 0 70 73" fill="none" xmlns="http://www.w3.org/2000/svg">
<path d="M37.6043 2.14558C34.4879 3.95731 33.0336 4.07055 30.2288 3.16468C24.3077 1.12649 19.3215 2.93821 13.5043 9.16603C10.6996 12.2233 6.44051 16.4129 4.15517 18.5644C0.207758 22.1878 0 22.8672 0 28.7553C0 34.3038 0.415517 35.4361 3.53189 38.9463C5.5056 41.0977 8.41422 43.2492 10.0763 43.5889C11.7383 44.0418 13.7121 45.5138 14.5431 46.8726C17.7633 52.1946 24.931 53.5534 29.9172 49.9299C32.8258 47.8917 32.9297 47.8917 36.6694 50.0432C41.4478 52.7607 48.3038 52.1946 52.5629 48.7976C54.1211 47.4388 56.718 46.4197 58.1724 46.4197C69.8068 46.4197 74.5853 28.5289 64.509 22.6408C62.6392 21.6217 61.8081 20.1496 61.8081 18.1114C61.8081 12.563 57.5491 5.31611 52.459 2.48528C46.8495 -0.57201 42.6944 -0.685242 37.6043 2.14558ZM53.3939 5.31611C57.5491 8.7131 59.9383 14.488 59.4189 20.0364C59.0034 24.5657 59.1073 24.7922 61.1849 24.226C64.6129 23.3202 67.5215 27.5098 67.5215 33.5111C67.5215 39.6257 64.9245 42.7962 59.1073 43.8153C56.9258 44.155 53.7056 45.5138 52.1474 46.6462C46.9534 50.7226 40.0974 50.4961 34.5918 46.1932C33.1375 45.0609 32.4103 45.1741 30.6444 46.9859C29.0862 48.5711 26.9047 49.2505 23.6845 49.2505C19.6332 49.2505 18.5944 48.6844 16.2052 45.5138C14.647 43.5889 12.7771 41.8904 12.05 41.8904C9.34913 41.8904 4.67456 38.2669 3.11638 35.0964C-0.207758 28.1892 2.59698 19.4702 9.03749 16.9791C11.1151 16.1865 13.0888 14.1483 14.0237 12.1101C17.1401 5.54258 25.8659 2.71175 32.0987 6.22197C35.7344 8.26017 35.8383 8.26017 35.8383 6.33521C35.8383 2.14558 48.4077 1.35295 53.3939 5.31611Z" fill="#FBD765"/>
<path d="M36.8771 10.1851C36.8771 10.7512 37.3965 11.3174 37.9159 11.3174C38.5391 11.3174 38.9547 10.7512 38.9547 10.1851C38.9547 9.50565 38.5391 9.05272 37.9159 9.05272C37.3965 9.05272 36.8771 9.50565 36.8771 10.1851Z" fill="#FBD765"/>
<path d="M15.0625 14.7145C15.0625 15.2806 15.5819 15.8468 16.1013 15.8468C16.7246 15.8468 17.1401 15.2806 17.1401 14.7145C17.1401 14.0351 16.7246 13.5821 16.1013 13.5821C15.5819 13.5821 15.0625 14.0351 15.0625 14.7145Z" fill="#FBD765"/>
<path d="M38.9548 14.7145C38.9548 15.2806 39.4742 15.8468 39.9936 15.8468C40.6168 15.8468 41.0324 15.2806 41.0324 14.7145C41.0324 14.0351 40.6168 13.5821 39.9936 13.5821C39.4742 13.5821 38.9548 14.0351 38.9548 14.7145Z" fill="#FBD765"/>
<path d="M19.2176 15.8467C19.2176 16.4128 19.737 16.979 20.2564 16.979C20.8797 16.979 21.2952 16.4128 21.2952 15.8467C21.2952 15.1673 20.8797 14.7143 20.2564 14.7143C19.737 14.7143 19.2176 15.1673 19.2176 15.8467Z" fill="#FBD765"/>
<path d="M22.334 18.1115C22.334 18.6777 22.8534 19.2438 23.3728 19.2438C23.9961 19.2438 24.4116 18.6777 24.4116 18.1115C24.4116 17.4321 23.9961 16.9792 23.3728 16.9792C22.8534 16.9792 22.334 17.4321 22.334 18.1115Z" fill="#FBD765"/>
<path d="M56.6142 28.3025C56.6142 28.8686 57.1336 29.4348 57.653 29.4348C58.2763 29.4348 58.6918 28.8686 58.6918 28.3025C58.6918 27.6231 58.2763 27.1702 57.653 27.1702C57.1336 27.1702 56.6142 27.6231 56.6142 28.3025Z" fill="#FBD765"/>
<path d="M53.4978 31.6993C53.4978 32.2655 54.0172 32.8317 54.5366 32.8317C55.1599 32.8317 55.5754 32.2655 55.5754 31.6993C55.5754 31.0199 55.1599 30.567 54.5366 30.567C54.0172 30.567 53.4978 31.0199 53.4978 31.6993Z" fill="#FBD765"/>
<path d="M28.2551 56.3841C24.8271 60.4605 27.424 66.8016 32.4102 66.8016C35.0072 66.8016 37.9158 63.4046 37.9158 60.3473C37.9158 55.1386 31.4753 52.5342 28.2551 56.3841ZM35.215 59.1017C36.046 60.687 35.9421 61.4796 34.5917 62.9517C31.4753 66.3486 26.8008 61.9326 29.6055 58.1959C31.2676 56.1577 33.6568 56.4974 35.215 59.1017Z" fill="#FBD765"/>
<path d="M19.2177 66.1224C16.413 69.859 21.0875 74.2751 24.2039 70.8781C25.5543 69.4061 25.6582 68.6135 24.8272 67.0282C23.269 64.4239 20.8798 64.0842 19.2177 66.1224ZM23.3729 68.5002C23.3729 69.4061 22.6457 70.1987 21.8147 70.1987C20.9837 70.1987 20.2565 69.4061 20.2565 68.5002C20.2565 67.5944 20.9837 66.8018 21.8147 66.8018C22.6457 66.8018 23.3729 67.5944 23.3729 68.5002Z" fill="#FBD765"/>
</svg>
