<svg width="70" height="70" viewBox="0 0 70 70" fill="none" xmlns="http://www.w3.org/2000/svg">
<path d="M42.875 18.375C42.3406 18.9203 42.0413 19.6533 42.0413 20.4167C42.0413 21.1802 42.3406 21.9132 42.875 22.4584L47.5417 27.125C48.0869 27.6595 48.8199 27.9588 49.5833 27.9588C50.3468 27.9588 51.0798 27.6595 51.625 27.125L62.6208 16.1292C64.0874 19.3702 64.5315 22.9811 63.8938 26.4809C63.2562 29.9806 61.5671 33.2029 59.0516 35.7184C56.5362 38.2338 53.3139 39.9229 49.8142 40.5605C46.3144 41.1982 42.7035 40.7541 39.4625 39.2875L19.3083 59.4417C18.148 60.602 16.5743 61.2539 14.9333 61.2539C13.2924 61.2539 11.7187 60.602 10.5583 59.4417C9.39802 58.2814 8.74615 56.7076 8.74615 55.0667C8.74615 53.4258 9.39802 51.852 10.5583 50.6917L30.7125 30.5375C29.2459 27.2966 28.8018 23.6856 29.4395 20.1859C30.0772 16.6861 31.7663 13.4638 34.2817 10.9484C36.7971 8.43296 40.0194 6.74387 43.5192 6.10621C47.0189 5.46855 50.6299 5.91261 53.8708 7.37921L42.9042 18.3459L42.875 18.375Z" stroke="#FBD765" stroke-width="5" stroke-linecap="round" stroke-linejoin="round"/>
</svg>
