<svg width="70" height="73" viewBox="0 0 70 73" fill="none" xmlns="http://www.w3.org/2000/svg">
<path d="M1.39102 4.66398C0.341823 7.56418 -0.00790918 14.4522 0.691554 20.2526C1.74075 29.6782 3.13968 30.4033 15.73 30.4033H29.7193V15.9023C29.7193 1.76378 29.3696 1.40126 16.4295 0.313681C7.33646 -0.411369 2.78994 0.676205 1.39102 4.66398Z" fill="#FBD765"/>
<path d="M2.44019 42.0041C-1.75659 45.9919 -0.357659 50.3422 5.23805 50.3422C8.0359 50.3422 10.484 52.8798 10.484 55.78C10.484 58.6802 8.0359 61.2179 4.88832 61.2179C1.74073 61.2179 -0.00792751 63.0305 0.691536 65.5682C2.78993 72.0937 10.484 73.1812 10.484 67.0183C10.484 63.7556 12.9321 61.2179 15.73 61.2179C18.5279 61.2179 20.976 63.7556 20.976 67.0183C20.976 73.1812 28.6701 72.0937 30.7685 65.5682C31.4679 63.0305 29.7193 61.2179 26.5717 61.2179C23.4241 61.2179 20.976 58.6802 20.976 55.78C20.976 52.8798 23.4241 50.3422 26.5717 50.3422C29.7193 50.3422 31.4679 48.5295 30.7685 45.9919C28.6701 39.4664 20.976 38.3788 20.976 44.5418C20.976 47.8045 18.5279 50.3422 15.73 50.3422C12.9321 50.3422 10.484 47.8045 10.484 44.9043C10.484 39.1039 6.28724 37.6538 2.44019 42.0041Z" fill="#FBD765"/>
<path d="M39.5118 44.9042C36.3642 53.9673 40.2112 54.6924 47.2059 46.7168C53.1513 40.1914 53.1513 39.4663 47.5556 39.4663C44.408 39.4663 40.9107 42.004 39.5118 44.9042Z" fill="#FBD765"/>
<path d="M51.0529 53.6049C43.7085 61.218 39.162 68.4685 40.9107 69.5561C43.0091 71.0062 50.3534 65.5683 57.3481 57.9553C64.6924 50.3422 69.239 43.0917 67.4903 42.0041C65.3919 40.554 58.0475 45.9919 51.0529 53.6049Z" fill="#FBD765"/>
<path d="M61.1951 64.8432C55.2497 71.3686 55.2497 72.0937 60.8454 72.0937C63.993 72.0937 67.4903 69.556 68.8892 66.6558C72.0368 57.5927 68.1898 56.8676 61.1951 64.8432Z" fill="#FBD765"/>
</svg>
