<svg width="70" height="70" viewBox="0 0 70 70" fill="none" xmlns="http://www.w3.org/2000/svg">
<path d="M34.5 37.7355C41.9062 37.7355 47.932 31.6841 47.932 24.2458C47.932 16.8074 41.9062 10.7554 34.5 10.7554C27.0938 10.7554 21.068 16.8074 21.068 24.2458C21.0685 31.6841 27.0938 37.7355 34.5 37.7355ZM34.5 16.2247C38.9039 16.2247 42.4863 19.8227 42.4863 24.2458C42.4863 28.6688 38.9039 32.2668 34.5 32.2668C30.096 32.2668 26.5136 28.6688 26.5136 24.2458C26.5136 19.8227 30.096 16.2247 34.5 16.2247ZM63.8654 59.8921L55.9976 35.2703C64.1552 19.2908 52.5843 0 34.5 0C16.4066 0 4.85009 19.3009 13.0024 35.2703L5.13458 59.8921C4.43479 62.0833 6.58838 64.1127 8.7207 63.2737L17.1133 59.97L21.3556 68.491C22.3569 70.5017 25.2236 70.5044 26.2259 68.491L34.5 51.8716L42.774 68.491C43.7748 70.5017 46.642 70.5044 47.6443 68.491L51.8861 59.97L60.2793 63.2737C62.4126 64.1133 64.5652 62.0822 63.8654 59.8921ZM34.5 5.46877C44.8085 5.46877 53.1953 13.8919 53.1953 24.2458C53.1953 34.599 44.8085 43.0222 34.5 43.0222C24.1909 43.0222 15.8042 34.599 15.8042 24.2458C15.8042 13.8919 24.1909 5.46877 34.5 5.46877ZM23.791 61.1535L20.8717 55.2895C20.2416 54.0244 18.7543 53.4502 17.443 53.9667L12.0713 56.0805L16.9352 40.8598C20.4235 44.5779 25.0646 47.1927 30.2795 48.1198L23.791 61.1535ZM51.5569 53.9667C50.2456 53.4502 48.7583 54.0244 48.1282 55.2895L45.2089 61.1535L38.7205 48.1198C43.9354 47.1927 48.5765 44.5779 52.0648 40.8603L56.9287 56.081L51.5569 53.9667Z" fill="#FBD765"/>
<path d="M35.5 38C42.9437 38 49 31.9441 49 24.5003C49 17.0564 42.9437 11 35.5 11C28.0563 11 22 17.0564 22 24.5003C22.0005 31.9441 28.0563 38 35.5 38ZM35.5 16.4733C39.9262 16.4733 43.5268 20.0739 43.5268 24.5003C43.5268 28.9266 39.9262 32.5272 35.5 32.5272C31.0738 32.5272 27.4732 28.9266 27.4732 24.5003C27.4732 20.0739 31.0738 16.4733 35.5 16.4733Z" fill="#FBD765"/>
</svg>
