<svg width="38" height="97" viewBox="0 0 38 97" fill="none" xmlns="http://www.w3.org/2000/svg">
<path d="M11.8226 3.54131C5.27819 9.98608 9.92263 21.5867 19.0004 21.5867C24.0671 21.5867 29.556 16.0012 29.556 10.8454C29.556 5.68957 24.0671 0.104101 19.0004 0.104101C16.8893 0.104101 13.5115 1.60788 11.8226 3.54131Z" fill="#FBD765"/>
<path d="M6.12222 32.1132C0.633333 37.6987 0 39.8469 0 51.4475C0 62.1888 0.633333 64.7667 4.22222 66.7002C7.81111 68.6336 8.44444 71.2115 8.44444 82.8121V86.2202C8.44444 92.0499 13.1703 96.7758 19 96.7758C24.8297 96.7758 29.5556 92.0499 29.5556 86.2202V82.8121C29.5556 71.2115 30.1889 68.6336 33.7778 66.7002C37.1556 64.7667 38 62.1888 38 52.092C38 38.9876 34.8333 32.1132 27.0222 27.8167C23.6444 25.8833 22.1667 26.0981 20.6889 28.2463C19.2111 30.6094 18.3667 30.6094 17.5222 28.4612C16.0444 24.3795 12.8778 25.4536 6.12222 32.1132ZM21.1111 43.0693C21.1111 48.8696 20.2667 53.8106 19 53.8106C17.9444 53.8106 16.8889 48.8696 16.8889 43.0693C16.8889 37.0542 17.9444 32.328 19 32.328C20.2667 32.328 21.1111 37.0542 21.1111 43.0693Z" fill="#FBD765"/>
</svg>
