<svg width="6" height="10" viewBox="0 0 6 10" fill="none" xmlns="http://www.w3.org/2000/svg">
<path d="M0.664062 0.0446749C0.578125 0.077878 0.513672 0.130612 0.330078 0.312253C0.0488281 0.59155 0.0117188 0.657956 0.00976562 0.870847C0.00976562 0.984128 0.0195312 1.04858 0.046875 1.10522C0.0722656 1.15796 0.697266 1.79858 1.99023 3.0935L3.89648 5.00171L1.98828 6.91186C0.503906 8.39624 0.0703125 8.8396 0.0410156 8.90796C0.0136719 8.96655 0 9.03882 0 9.1228C0 9.32397 0.0566406 9.42163 0.328125 9.69116C0.519531 9.88061 0.576172 9.92358 0.669922 9.95874C0.8125 10.0134 0.925781 10.0134 1.06836 9.96069C1.17773 9.92163 1.2793 9.82202 3.4707 7.63061C6.00391 5.09936 5.85938 5.25952 5.85938 5.00171C5.85938 4.74389 6.00391 4.90405 3.4707 2.3728C1.27734 0.17944 1.17773 0.0817842 1.06836 0.0427217C0.927734 -0.0080595 0.802734 -0.0080595 0.664062 0.0446749Z" fill="white"/>
</svg>
