<svg width="41" height="45" viewBox="0 0 41 45" fill="none" xmlns="http://www.w3.org/2000/svg">
<g clip-path="url(#clip0_0_19)">
<path d="M20.4687 0C13.9843 0 8.70903 5.93777 8.70903 13.2365V31.7635C8.70903 39.0622 13.9843 45 20.4687 45C26.953 45 32.2283 39.0622 32.2283 31.7635V13.2365C32.2283 5.93777 26.953 0 20.4687 0ZM29.8296 31.7635C29.8296 37.5732 25.6301 42.3001 20.4687 42.3001C15.3072 42.3001 11.1077 37.5732 11.1077 31.7635V13.2365C11.1077 7.42676 15.3072 2.69989 20.4687 2.69989C25.6301 2.69989 29.8296 7.42676 29.8296 13.2365V31.7635Z" fill="#FBD765"/>
<path d="M20.4689 8.9519C19.8065 8.9519 19.2696 9.55615 19.2696 10.3018V16.5153C19.2696 17.2607 19.8065 17.8652 20.4689 17.8652C21.1311 17.8652 21.6683 17.2607 21.6683 16.5153V10.3018C21.6683 9.55615 21.1314 8.9519 20.4689 8.9519Z" fill="#FBD765"/>
</g>
<defs>
<clipPath id="clip0_0_19">
<rect width="39.9792" height="45" fill="white" transform="translate(0.510162)"/>
</clipPath>
</defs>
</svg>
