<svg width="22" height="25" viewBox="0 0 22 25" fill="none" xmlns="http://www.w3.org/2000/svg">
<g clip-path="url(#clip0_0_28)">
<path d="M21.4351 19.8806C21.3684 19.3099 21.0772 18.8178 20.6364 18.5306L15.4583 15.1571C14.8241 14.744 14.0195 14.8642 13.5019 15.4499L12.482 16.604C12.2106 16.9112 11.7812 16.9383 11.4834 16.6672C10.6793 15.9351 9.88767 15.1294 9.1304 14.2725C8.37313 13.4156 7.6611 12.5198 7.01408 11.6099C6.77441 11.2729 6.79839 10.7871 7.06988 10.48L8.08976 9.32588C8.60736 8.74025 8.7138 7.82997 8.34856 7.1122L5.36722 1.25299C5.11336 0.754092 4.67853 0.424676 4.17417 0.34917C3.66976 0.27351 3.17415 0.463865 2.81439 0.870941L1.2776 2.60994C0.204999 3.82368 0.187773 6.04383 1.22909 8.86151C2.23038 11.5708 4.09896 14.5533 6.49054 17.2596C8.88221 19.9658 11.518 22.0802 13.9124 23.2132C15.1381 23.7931 16.2358 24.083 17.1625 24.0829C18.1185 24.0829 18.8925 23.7745 19.4372 23.1582L20.974 21.4192C21.3337 21.0121 21.5018 20.4513 21.4351 19.8806V19.8806ZM15.119 15.8239L20.2971 19.1974C20.5532 19.3642 20.7223 19.6501 20.761 19.9815C20.7935 20.2597 20.7297 20.5336 20.5849 20.7543L13.7033 16.3102L13.9827 15.994C14.2833 15.6539 14.7507 15.584 15.119 15.8239V15.8239ZM4.08496 1.11198C4.37794 1.15583 4.63048 1.34716 4.7779 1.63693L7.75924 7.49614C7.9714 7.91301 7.90956 8.44176 7.60897 8.78185L7.35225 9.07233L3.40321 1.31126C3.56464 1.17599 3.75771 1.10254 3.95898 1.10254C4.00073 1.10254 4.04284 1.10567 4.08496 1.11198V1.11198ZM18.9563 22.6141C18.1042 23.5784 16.3613 23.538 14.1747 22.5032C11.8601 21.408 9.30193 19.3525 6.97142 16.7155C4.64091 14.0784 2.82437 11.1837 1.85644 8.56466C0.94196 6.09035 0.906284 4.11827 1.75843 3.15397L2.8993 1.86298L6.85428 9.6358L6.58905 9.93593C6.07158 10.5215 6.02652 11.4485 6.48428 12.0924C7.14654 13.0237 7.87507 13.9402 8.64952 14.8165C9.42406 15.6929 10.234 16.5173 11.057 17.2666C11.626 17.7846 12.4452 17.7337 12.9628 17.148L13.2048 16.8742L20.096 21.3245L18.9563 22.6141V22.6141Z" fill="white"/>
</g>
<defs>
<clipPath id="clip0_0_28">
<rect width="20.9891" height="23.75" fill="white" transform="translate(0.459656 0.333374)"/>
</clipPath>
</defs>
</svg>
