<svg width="16" height="25" viewBox="0 0 16 25" fill="none" xmlns="http://www.w3.org/2000/svg">
<path d="M8.21045 5.53821C6.73125 5.53821 5.52726 6.90057 5.52726 8.57435C5.52726 10.2481 6.73125 11.6105 8.21045 11.6105C9.68966 11.6105 10.8936 10.2481 10.8936 8.57435C10.8936 6.90057 9.68966 5.53821 8.21045 5.53821ZM8.21045 10.743C7.15366 10.743 6.29389 9.77015 6.29389 8.57435C6.29389 7.37854 7.15366 6.40568 8.21045 6.40568C9.26724 6.40568 10.127 7.37854 10.127 8.57435C10.127 9.77015 9.26724 10.743 8.21045 10.743Z" fill="white"/>
<path d="M13.3406 2.76966C11.9522 1.19867 10.1062 0.333374 8.14285 0.333374C6.17914 0.333374 4.33349 1.19867 2.94513 2.76966C0.375787 5.67655 0.0564873 11.1459 2.25364 14.4597L8.14285 24.0834L14.0233 14.4731C16.2292 11.1459 15.9099 5.67655 13.3406 2.76966ZM13.4015 13.9661L8.14285 22.5592L2.87575 13.9526C0.88291 10.946 1.16848 6.00662 3.48752 3.38296C4.73099 1.97593 6.38422 1.20084 8.14285 1.20084C9.90149 1.20084 11.5547 1.97593 12.7986 3.38296C15.1176 6.00662 15.4032 10.946 13.4015 13.9661Z" fill="white"/>
</svg>
